<?xml version="1.0" standalone="no"?>
<!DOCTYPE svg PUBLIC "-//W3C//DTD SVG 20010904//EN"
 "http://www.w3.org/TR/2001/REC-SVG-20010904/DTD/svg10.dtd">
<svg version="1.0" xmlns="http://www.w3.org/2000/svg"
 width="1400.000000pt" height="1400.000000pt" viewBox="0 0 1400.000000 1400.000000"
 preserveAspectRatio="xMidYMid meet">
<metadata>
Created by potrace 1.14, written by Peter Selinger 2001-2017
</metadata>
<g transform="translate(0.000000,1400.000000) scale(0.100000,-0.100000)"
fill="#000000" stroke="none">
<path d="M4517 11023 c-1 -1 -52 -4 -112 -8 -61 -3 -121 -8 -135 -10 -14 -2
-50 -7 -80 -10 -71 -8 -118 -15 -155 -21 -16 -3 -44 -7 -61 -9 -17 -1 -39 -5
-50 -8 -10 -4 -35 -9 -54 -12 -19 -3 -82 -17 -140 -31 -138 -33 -126 -30 -199
-53 -35 -11 -68 -18 -72 -16 -4 3 -9 2 -11 -2 -1 -5 -55 -25 -118 -46 -63 -21
-135 -48 -160 -59 -25 -11 -49 -21 -55 -22 -5 -1 -32 -12 -59 -24 -27 -12 -51
-22 -53 -22 -7 0 -258 -126 -310 -156 -82 -47 -218 -128 -228 -136 -12 -10
-117 -81 -157 -106 -16 -9 -28 -20 -28 -24 0 -5 -4 -8 -10 -8 -9 0 -18 -6 -72
-52 -12 -10 -24 -18 -27 -18 -3 0 -19 -12 -36 -28 -16 -15 -55 -47 -85 -72
-141 -115 -312 -286 -485 -484 -35 -39 -137 -170 -170 -216 -22 -30 -42 -57
-45 -60 -3 -3 -9 -12 -15 -21 -5 -10 -34 -52 -63 -94 -28 -42 -52 -81 -52 -86
0 -5 -4 -9 -9 -9 -5 0 -12 -11 -15 -24 -3 -14 -12 -31 -19 -38 -7 -7 -24 -33
-38 -58 -13 -25 -28 -48 -34 -52 -5 -4 -6 -8 -1 -8 5 0 2 -8 -6 -17 -18 -21
-132 -254 -178 -363 -49 -117 -142 -366 -138 -373 2 -3 -12 -50 -22 -72 -11
-25 -70 -261 -75 -297 -2 -15 -7 -38 -11 -50 -4 -13 -8 -34 -10 -48 -3 -29
-12 -74 -20 -110 -3 -14 -8 -43 -10 -65 -3 -36 -6 -61 -19 -155 -19 -137 -26
-557 -12 -720 15 -166 17 -185 23 -225 4 -22 8 -49 9 -60 7 -56 16 -122 21
-136 2 -9 7 -34 10 -55 2 -22 7 -48 11 -59 4 -11 7 -27 9 -35 1 -8 7 -37 14
-65 6 -27 13 -57 15 -65 1 -8 9 -35 16 -60 7 -25 14 -49 15 -55 8 -30 54 -176
68 -215 9 -25 18 -52 21 -61 8 -38 119 -298 174 -411 50 -103 142 -270 194
-353 26 -42 172 -260 177 -265 3 -3 25 -32 50 -65 49 -65 64 -84 95 -120 11
-13 43 -49 70 -81 124 -144 256 -275 415 -414 35 -30 69 -60 75 -67 7 -7 15
-9 19 -6 3 4 6 2 6 -3 0 -6 36 -37 81 -70 45 -32 89 -66 99 -75 10 -9 21 -18
26 -20 13 -6 257 -167 272 -179 6 -6 12 -9 12 -6 0 3 34 -15 75 -39 42 -25 80
-45 85 -45 5 0 16 -7 24 -16 9 -9 22 -17 29 -18 6 -1 56 -23 110 -49 83 -41
137 -65 157 -72 3 -1 16 -6 30 -12 71 -30 213 -83 275 -103 39 -12 77 -24 85
-27 8 -3 21 -7 28 -9 8 -1 21 -6 30 -10 9 -4 24 -8 32 -10 25 -5 55 -12 55
-14 0 -1 8 -3 17 -5 9 -2 48 -11 85 -20 37 -10 79 -19 93 -21 14 -3 32 -7 40
-9 8 -3 32 -7 54 -11 21 -3 48 -8 60 -10 35 -8 59 -12 101 -18 22 -3 58 -8 80
-11 22 -3 63 -8 90 -10 28 -2 50 -4 50 -5 0 -3 129 -10 255 -14 74 -2 137 -5
140 -6 3 -1 10 -1 15 0 6 2 46 4 90 6 119 4 267 13 295 18 14 3 52 8 85 11 59
6 70 7 150 20 47 7 71 12 105 20 14 3 40 8 59 11 45 8 55 10 131 29 36 8 73
18 83 20 10 2 27 7 37 10 10 3 27 8 37 10 52 12 149 40 153 45 3 3 14 7 25 9
16 2 186 64 245 88 8 3 18 5 23 5 4 -1 7 3 7 9 0 5 5 7 10 4 6 -3 10 -2 10 2
0 5 8 9 18 10 22 2 334 153 343 166 3 5 8 8 10 7 8 -4 59 24 59 32 0 4 5 8 11
8 6 0 41 18 77 41 37 22 76 45 87 52 11 7 22 14 25 17 14 14 102 70 109 70 5
0 11 3 13 8 2 4 37 32 78 61 41 30 77 58 78 63 2 4 8 8 13 8 5 0 21 13 36 28
16 16 35 33 45 38 29 16 138 115 286 259 81 79 157 145 174 151 28 9 41 6 112
-30 45 -22 83 -44 84 -48 2 -5 7 -8 12 -8 4 0 64 -31 133 -70 69 -38 130 -70
136 -70 6 0 11 -4 11 -8 0 -4 19 -17 43 -29 34 -17 344 -191 507 -286 19 -11
55 -31 80 -45 25 -14 62 -36 82 -49 21 -12 42 -23 48 -23 5 0 10 -4 10 -10 0
-5 4 -10 9 -10 5 0 49 -23 98 -51 184 -107 509 -273 558 -285 14 -3 25 -10 25
-15 0 -5 6 -9 14 -9 7 0 46 -14 87 -30 41 -17 81 -32 89 -34 8 -2 32 -10 52
-20 21 -9 46 -16 57 -16 11 0 23 -5 26 -10 4 -6 11 -8 16 -5 5 4 9 1 9 -5 0
-6 4 -9 9 -6 5 4 20 2 33 -3 14 -5 42 -12 62 -15 21 -4 43 -9 48 -12 5 -3 30
-8 56 -10 26 -2 58 -6 72 -9 30 -6 225 -7 260 -1 14 3 45 7 70 11 70 10 74 11
90 18 8 4 24 8 35 10 22 4 27 6 138 49 42 17 77 34 77 39 0 5 7 9 15 9 19 0
149 86 225 148 67 55 260 249 315 316 22 26 47 56 55 65 17 19 33 39 114 147
33 44 62 81 65 84 3 3 22 28 41 55 19 28 39 55 45 62 31 36 35 43 35 53 0 5 5
10 10 10 6 0 10 4 10 10 0 5 9 20 19 32 11 13 60 79 110 148 49 69 94 130 99
136 5 6 21 29 36 52 14 23 31 42 36 42 6 0 10 6 10 13 0 7 8 22 18 33 9 10 24
29 32 40 30 43 217 290 251 330 64 78 104 127 109 135 17 25 66 37 129 32 51
-4 75 -2 98 11 98 50 146 165 110 262 -14 36 -62 93 -93 111 -24 13 -94 29
-109 24 -5 -2 -23 -5 -40 -8 -60 -10 -105 -44 -135 -100 -24 -46 -24 -47 -16
-156 l5 -78 -65 -85 c-35 -46 -72 -93 -82 -102 -16 -17 -40 -47 -89 -109 -12
-15 -30 -38 -40 -50 -11 -12 -28 -34 -39 -49 -10 -15 -30 -41 -44 -58 -15 -17
-62 -78 -105 -135 -44 -57 -88 -112 -97 -123 -10 -10 -18 -21 -18 -25 0 -5
-16 -25 -35 -47 -19 -21 -35 -41 -35 -45 0 -3 -12 -20 -28 -36 -15 -17 -49
-59 -77 -95 -47 -61 -76 -97 -100 -124 -6 -6 -30 -36 -55 -66 -25 -30 -52 -61
-60 -70 -8 -9 -42 -47 -75 -84 -91 -105 -234 -248 -287 -288 -26 -20 -44 -39
-41 -42 4 -3 -1 -6 -10 -6 -9 0 -17 -4 -17 -10 0 -5 -4 -10 -10 -10 -5 0 -37
-20 -72 -44 -63 -44 -135 -84 -152 -84 -5 0 -12 -4 -15 -10 -11 -17 -221 -88
-316 -107 -67 -14 -311 -26 -329 -17 -9 5 -75 13 -109 13 -10 0 -48 7 -85 15
-37 8 -77 17 -88 19 -12 3 -75 23 -140 45 -66 22 -125 41 -131 42 -7 1 -13 6
-13 11 0 6 -3 8 -6 5 -5 -5 -62 16 -174 64 -14 6 -27 12 -30 13 -70 25 -763
364 -768 377 -2 4 -12 8 -23 8 -10 0 -19 4 -19 8 0 4 -12 13 -27 19 -16 6 -64
31 -109 56 -44 24 -116 63 -160 87 -43 24 -101 55 -129 70 -148 81 -364 188
-369 183 -3 -4 -6 -2 -6 3 0 5 -22 18 -50 29 -50 19 -64 40 -35 51 8 4 15 12
15 20 0 8 4 14 8 14 5 0 22 19 39 42 17 24 43 57 57 73 14 17 26 33 26 37 0 4
6 13 13 20 7 7 38 49 68 93 30 44 59 85 64 91 6 6 19 28 30 50 11 21 23 41 26
44 25 23 234 426 245 475 1 6 14 40 28 78 26 69 26 81 -3 49 -9 -10 -38 -34
-66 -53 -27 -18 -51 -37 -53 -41 -2 -5 -9 -8 -17 -8 -7 0 -18 -7 -25 -15 -7
-8 -21 -15 -31 -15 -11 0 -19 -4 -19 -9 0 -25 -280 -118 -410 -137 -144 -20
-318 -20 -485 1 -16 2 -30 4 -30 5 0 1 -16 4 -35 7 -88 12 -258 83 -350 147
-66 45 -210 171 -238 209 -8 10 -24 28 -36 40 -13 12 -36 40 -52 62 -16 22
-32 42 -35 45 -20 16 -106 168 -142 250 -38 86 -73 198 -83 260 -3 19 -7 42
-10 50 -3 8 -8 40 -10 70 -2 30 -7 80 -10 110 -11 117 0 475 16 475 1 0 3 14
5 30 21 162 119 418 216 563 16 24 29 45 29 47 0 3 21 33 47 67 60 79 204 224
263 263 25 16 47 33 50 36 6 7 181 103 195 106 13 3 150 52 150 54 0 9 229 50
305 55 30 1 56 4 58 4 8 5 60 3 69 -3 6 -4 22 -3 36 2 14 5 27 7 30 5 3 -3 25
-7 49 -9 212 -16 446 -94 575 -191 17 -13 34 -24 37 -24 13 0 167 -148 207
-200 10 -14 32 -42 48 -63 32 -41 42 -34 35 24 -3 28 -30 161 -47 234 -22 92
-33 130 -53 200 -46 161 -55 190 -64 210 -5 11 -14 38 -21 60 -12 41 -67 181
-96 245 -82 183 -228 462 -245 468 -4 2 -8 9 -8 15 0 9 -95 163 -110 177 -14
14 -50 71 -50 80 0 5 -9 15 -20 22 -11 7 -20 17 -20 23 0 5 -13 24 -28 42 -15
17 -36 44 -47 59 -20 28 -61 80 -80 100 -5 6 -35 40 -65 75 -101 118 -345 356
-449 439 -24 19 -52 42 -61 50 -9 8 -38 32 -65 52 -28 21 -54 41 -60 45 -41
33 -156 113 -162 113 -4 0 -16 8 -27 18 -34 31 -282 175 -411 239 -115 58
-327 153 -340 153 -4 0 -21 6 -38 14 -44 19 -124 48 -134 48 -4 0 -16 4 -26
10 -10 5 -26 11 -35 14 -9 2 -55 15 -102 30 -47 14 -112 33 -145 41 -33 8 -69
17 -80 20 -24 6 -101 22 -132 29 -13 2 -35 7 -50 10 -16 3 -41 7 -58 10 -29 4
-45 6 -122 18 -21 3 -60 8 -88 12 -27 3 -61 7 -75 9 -72 11 -545 26 -553 18z
m-164 -1696 c15 14 330 -6 502 -32 93 -15 88 -14 210 -38 11 -3 38 -8 60 -12
22 -5 46 -10 53 -12 6 -1 20 -5 30 -7 9 -3 17 -5 17 -6 0 -1 13 -4 29 -6 16
-3 37 -9 47 -15 10 -5 26 -9 36 -9 31 0 73 -24 80 -45 8 -24 10 -695 2 -695
-3 0 -34 18 -69 41 -56 36 -250 139 -263 139 -2 0 -22 8 -43 17 -22 9 -42 18
-46 19 -5 1 -10 3 -13 4 -3 1 -8 3 -12 5 -5 1 -17 5 -28 9 -76 29 -95 35 -95
30 0 -4 -6 -2 -13 4 -7 6 -27 13 -44 17 -18 3 -43 9 -57 15 -15 5 -26 7 -26 4
0 -4 -7 -1 -15 6 -8 7 -15 10 -15 7 0 -3 -19 0 -42 5 -24 5 -53 12 -65 14 -13
2 -35 7 -50 10 -16 3 -41 7 -58 9 -16 1 -52 6 -79 9 -93 13 -313 7 -376 -9 -8
-3 -31 -7 -50 -10 -19 -3 -53 -11 -75 -17 -22 -5 -44 -11 -50 -12 -5 -1 -14
-4 -20 -7 -5 -4 -28 -12 -50 -19 -62 -20 -235 -108 -255 -129 -3 -4 -17 -12
-31 -19 -14 -8 -39 -25 -55 -38 -146 -123 -193 -170 -276 -282 -56 -74 -144
-226 -137 -235 2 -3 -3 -13 -12 -23 -9 -11 -19 -28 -22 -39 -3 -11 -17 -50
-30 -87 -14 -38 -23 -68 -20 -68 3 0 0 -6 -6 -13 -6 -8 -8 -17 -4 -20 3 -4 1
-7 -6 -7 -7 0 -10 -4 -7 -8 3 -5 1 -24 -4 -43 -5 -19 -12 -47 -15 -64 -22
-124 -35 -201 -41 -256 -10 -84 -11 -430 -1 -494 8 -52 14 -90 21 -138 3 -16
10 -44 16 -63 7 -20 9 -38 6 -41 -3 -4 -1 -12 5 -20 6 -7 8 -13 4 -13 -4 0 -3
-6 2 -12 6 -7 13 -25 17 -40 3 -15 11 -40 18 -55 6 -15 13 -37 15 -48 2 -10 9
-23 16 -27 6 -4 9 -8 5 -8 -10 0 75 -169 127 -251 76 -119 167 -226 268 -314
45 -39 215 -147 240 -151 4 -1 10 -3 15 -4 4 -1 10 -2 15 -1 4 0 7 -3 7 -8 0
-6 115 -46 165 -57 6 -1 46 -10 90 -20 60 -13 128 -18 270 -18 243 -1 300 6
509 60 72 19 136 36 141 38 157 46 177 56 190 96 11 33 6 720 -5 720 -3 0 -5
21 -5 48 -1 53 -13 173 -19 194 -3 7 -7 34 -10 61 -3 26 -7 51 -9 55 -3 4 -8
23 -11 42 -3 19 -10 50 -15 69 -6 18 -10 36 -9 40 1 3 -4 20 -11 36 -7 17 -15
41 -17 54 -3 14 -7 28 -9 31 -2 4 2 16 10 27 14 20 22 21 445 19 371 -1 432
-3 440 -16 12 -19 12 -27 0 -35 -6 -4 -8 -10 -5 -15 3 -5 -1 -28 -9 -52 -19
-56 -38 -128 -41 -153 -2 -11 -10 -54 -18 -95 -9 -41 -19 -95 -22 -120 -3 -25
-8 -61 -11 -80 -2 -19 -6 -60 -8 -91 -2 -31 -5 -60 -8 -65 -7 -12 -2 -557 6
-654 7 -95 16 -187 20 -225 7 -59 19 -201 20 -229 1 -34 -34 -65 -76 -68 -16
-1 -28 -5 -28 -9 0 -3 -6 -6 -12 -7 -17 -1 -53 -10 -53 -13 0 -1 -10 -3 -22
-4 -12 -1 -30 -6 -40 -10 -10 -4 -23 -9 -28 -10 -6 -2 -67 -17 -136 -34 -70
-17 -142 -33 -160 -35 -19 -3 -35 -6 -36 -7 -6 -4 -98 -22 -178 -34 -16 -3
-41 -7 -55 -10 -14 -3 -47 -8 -75 -10 -104 -11 -126 -14 -137 -21 -7 -5 -8 -3
-3 6 5 9 4 11 -4 6 -13 -9 -99 -17 -196 -20 -38 -1 -76 -5 -82 -9 -7 -5 -13
-4 -13 1 0 11 -50 10 -67 -1 -7 -5 -13 -5 -13 0 0 4 -46 9 -103 11 -99 2 -202
8 -202 12 0 1 -23 3 -52 6 -28 2 -73 8 -100 13 -26 5 -51 7 -55 5 -5 -3 -8 -1
-8 4 0 5 -10 8 -22 7 -13 -1 -29 2 -35 8 -7 5 -13 7 -13 4 0 -15 -371 91 -390
112 -3 3 -12 7 -20 9 -24 6 -212 102 -239 123 -13 10 -28 19 -33 19 -5 0 -14
5 -21 10 -7 6 -52 40 -101 76 -81 61 -228 199 -301 284 -38 44 -105 136 -105
144 0 3 -8 15 -17 26 -20 23 -64 97 -91 150 -9 19 -21 38 -25 41 -5 3 -8 9 -8
13 1 3 -6 23 -15 44 -55 130 -101 259 -108 306 -1 6 -5 17 -10 24 -4 7 -6 16
-3 19 3 3 1 16 -4 30 -5 14 -12 42 -15 62 -3 20 -7 43 -9 51 -4 14 -13 97 -20
185 -2 22 -4 40 -6 40 -6 0 -4 417 2 427 4 7 3 20 -2 30 -5 10 -6 18 -1 18 4
0 9 20 11 44 1 25 4 55 7 68 2 13 7 39 9 58 5 41 7 49 33 160 42 175 134 403
227 559 37 61 121 186 138 202 7 8 18 21 23 31 26 47 226 255 294 306 19 15
42 35 51 44 9 10 19 18 23 18 4 0 12 5 19 10 47 39 62 50 78 55 11 4 19 10 19
15 0 5 9 12 20 15 11 3 26 12 32 18 13 12 233 123 293 147 121 49 341 113 435
125 14 2 25 4 25 5 0 2 49 9 100 14 22 3 40 5 40 6 0 3 69 8 180 15 55 4 102
8 104 11 2 2 9 -1 16 -6 7 -5 15 -7 18 -3z"/>
<path d="M9496 9255 c-25 -13 -25 -19 9 -175 23 -106 24 -111 31 -150 10 -68
15 -95 19 -125 2 -16 4 -30 5 -30 1 0 3 -16 5 -35 1 -19 6 -62 10 -95 10 -91
15 -160 21 -270 7 -127 12 -2297 5 -2309 -2 -5 -6 -37 -8 -70 -4 -75 -11 -171
-13 -171 -1 0 -3 -20 -5 -45 -6 -63 -13 -121 -19 -149 -3 -12 -8 -42 -10 -65
-3 -22 -8 -52 -11 -66 -3 -14 -8 -40 -11 -59 -7 -44 -9 -51 -32 -148 -31 -133
-69 -123 428 -122 235 1 423 5 426 10 13 22 12 57 -2 113 -9 34 -18 70 -19 81
-2 11 -6 34 -10 50 -4 17 -7 38 -8 48 -1 9 -4 17 -7 17 -3 0 -6 10 -7 23 -2
35 -11 102 -13 102 -2 0 -4 13 -14 100 -4 33 -9 71 -11 85 -2 14 -7 70 -12
125 -10 128 -11 2410 0 2530 4 50 9 114 12 144 2 29 6 70 9 90 3 20 8 56 12
81 3 25 8 59 11 75 3 17 6 45 6 63 1 17 6 32 11 32 5 0 7 2 4 5 -3 4 -1 25 4
48 5 23 12 52 14 65 7 39 13 66 19 92 16 64 17 98 4 106 -21 13 -828 11 -853
-1z"/>
<path d="M11011 9258 c-10 -3 -21 -13 -24 -21 -3 -7 6 -72 19 -143 14 -71 27
-142 29 -159 3 -16 8 -50 12 -75 4 -25 7 -60 7 -77 1 -18 3 -33 7 -33 3 0 5
-10 6 -22 0 -13 3 -45 7 -73 5 -46 9 -90 21 -260 21 -289 25 -2490 5 -2490 -1
0 -4 -25 -6 -55 -3 -57 -7 -90 -20 -175 -4 -27 -8 -59 -10 -70 -1 -11 -3 -20
-4 -20 -1 0 -3 -15 -6 -34 -4 -32 -7 -49 -18 -97 -2 -12 -7 -37 -10 -55 -3
-19 -13 -59 -21 -89 -22 -83 -20 -127 8 -133 12 -4 202 -6 421 -6 383 0 431 3
434 29 0 3 -6 34 -14 70 -8 36 -17 76 -19 90 -3 14 -10 45 -15 70 -5 25 -12
59 -14 75 -3 17 -7 39 -10 51 -2 12 -7 45 -11 75 -3 30 -8 65 -11 79 -2 14 -6
45 -8 70 -6 59 -17 174 -22 230 -3 25 -7 203 -10 395 -5 347 -5 351 16 377 12
15 24 27 28 26 6 -2 36 1 187 18 56 6 182 22 225 29 14 2 45 7 70 10 52 7 84
13 120 20 14 3 41 8 60 11 51 9 171 41 205 55 17 7 33 12 37 11 7 -2 56 17
123 48 22 9 47 21 55 24 110 48 280 195 348 299 15 23 29 44 32 47 14 12 71
145 92 212 26 85 22 70 33 133 10 56 12 64 14 68 14 18 20 419 8 495 -4 23
-10 61 -13 85 -3 23 -10 50 -15 60 -6 9 -7 17 -5 17 21 0 -116 308 -145 325
-5 4 -7 11 -4 16 4 5 1 9 -5 9 -6 0 -15 11 -22 25 -6 13 -15 22 -19 19 -5 -3
-9 -2 -9 3 0 26 -139 147 -236 207 -55 33 -226 113 -264 122 -8 2 -33 8 -55
14 -22 6 -51 13 -65 16 -14 2 -31 7 -39 9 -27 10 -208 34 -305 41 -131 9
-1151 11 -1175 2z m917 -402 c7 -4 12 -3 12 3 0 6 6 8 13 6 6 -2 46 -6 87 -9
41 -3 84 -7 95 -10 11 -3 39 -10 61 -15 48 -12 177 -76 214 -106 28 -22 128
-123 148 -148 22 -29 72 -117 66 -117 -4 0 -1 -6 5 -13 27 -34 79 -200 97
-317 9 -57 10 -291 2 -350 -23 -161 -84 -286 -191 -392 -43 -43 -85 -78 -92
-78 -8 0 -18 -8 -24 -17 -5 -10 -13 -17 -18 -17 -4 1 -33 -10 -63 -24 -83 -38
-93 -42 -115 -47 -11 -2 -45 -11 -75 -20 -30 -8 -71 -18 -90 -20 -19 -3 -46
-7 -60 -10 -14 -2 -45 -7 -70 -11 -25 -3 -63 -9 -86 -13 -46 -9 -84 -5 -99 10
-14 14 -15 1672 -1 1691 6 8 19 19 29 25 21 11 137 10 155 -1z"/>
<path d="M7420 7648 c-19 -5 -44 -11 -56 -13 -24 -6 -99 -39 -128 -58 -57 -36
-162 -141 -200 -198 -16 -24 -37 -55 -46 -69 -38 -58 -101 -238 -112 -320 -2
-14 -6 -29 -8 -35 -3 -5 -5 -34 -5 -62 0 -29 -2 -53 -5 -53 -7 0 -4 -126 4
-138 3 -6 2 -13 -4 -17 -6 -4 -8 -10 -6 -14 3 -4 8 -43 11 -87 3 -43 8 -90 11
-104 8 -51 15 -86 20 -115 8 -41 53 -195 64 -220 14 -29 32 -79 30 -84 -1 -2
2 -7 7 -10 4 -3 22 -32 38 -64 16 -32 56 -93 88 -135 61 -82 198 -218 229
-227 10 -4 18 -11 18 -16 0 -6 5 -7 10 -4 6 3 10 1 10 -4 0 -6 7 -11 15 -11 8
0 15 -5 15 -12 0 -6 3 -9 6 -6 3 4 25 -3 49 -13 89 -39 207 -52 294 -32 68 15
161 52 161 64 0 5 6 9 13 9 33 1 227 228 227 267 0 6 4 13 8 15 10 4 90 189
96 221 3 12 5 22 6 22 2 0 4 8 20 74 11 44 14 64 26 161 13 102 8 305 -10 406
-2 11 -7 37 -11 59 -4 22 -7 42 -7 45 0 3 -5 19 -12 35 -7 17 -14 35 -15 40
-14 83 -139 298 -242 415 -60 68 -161 170 -169 170 -4 0 -14 7 -21 16 -7 9
-22 20 -34 25 -11 5 -35 18 -53 29 -18 11 -36 20 -40 21 -4 1 -16 5 -28 9 -58
23 -205 33 -264 18z"/>
</g>
</svg>
